<svg id="a" xmlns="http://www.w3.org/2000/svg" viewBox="0 0 150 150"><defs><style>.cls-1{fill:none;}.cls-2{fill:#3c8628;fill-rule:evenodd;}</style></defs><g id="b"><g id="c"><path id="d" class="cls-1" d="M0,0H150V150H0Z"/></g></g><path id="Fill-3" class="cls-2" d="M133.57,72.09a1.33,1.33,0,1,1,2.66,0,71.46,71.46,0,0,1-.35,9.83,58.49,58.49,0,0,1-15,33.68A62.05,62.05,0,0,1,69,135.25c-29.62-2.66-54.28-30.18-53.85-60.74,0-32.69,28-61.17,60.87-60.69,22.29.56,39.94,10.69,47.63,29.23,4.94,12.94,1.82,26.74-9.93,35-7.68,5.43-18,7.8-28.66,8-12.23.2-24.86-2.51-34.14-6.85a1.34,1.34,0,1,1,1.13-2.43c9,4.18,21.15,6.8,33,6.61,15.79-.09,33.07-6.12,37.3-21.57,3.33-12.62-2.89-25.7-13.31-34.14C72.27-.58,18.24,27.8,17.86,74.51,17.44,103.72,41,130.05,69.3,132.58,104.3,136.23,135.57,108.14,133.57,72.09ZM98.17,97.75A1.33,1.33,0,0,1,100,99.67a34.32,34.32,0,0,1-24.14,9.9c-31,0-47-37.08-24.76-59.25a36.27,36.27,0,0,1,25-10.27c8,0,13.82,1.83,17.06,4.35,5.22,3.88,3.74,9.74-2.47,12A27.81,27.81,0,0,1,78.11,57.8a48,48,0,0,1-14.66-3.88,1.34,1.34,0,0,1,1.09-2.44c7.15,3.18,17.61,5.39,25.23,2.4,2-.8,3.26-1.82,3.75-2.89.72-1.78-.38-3.22-1.93-4.48-2.83-2.19-8.07-3.84-15.42-3.79A33.62,33.62,0,0,0,53,52.24C40.47,63.8,40.54,85.29,52.27,96.92,64.46,109.48,85.07,110.61,98.17,97.75Zm40-31.69a1.34,1.34,0,0,1,2.66-.3c2.74,20.6-4.31,41.09-17.09,54.16-24.58,25.79-66.63,28.44-93.41,2.52A65.47,65.47,0,0,1,9.85,74.61c.06-35.93,29.87-66.48,66-65.87,24.63.57,44.36,12.46,52.89,33.16,10.79,29.72-11.54,48.94-40.57,50.22-12.4.73-25.23-1.47-35.06-5.73a1.33,1.33,0,0,1,1.06-2.45c9.46,4.1,21.85,6.21,33.86,5.51,17.12-.82,35.44-8.44,39.76-25.33,3.82-15-3.57-30.7-16-40.59C71.4-7,12.82,23.25,12.52,74.61,11.91,109,41.82,138.26,74.74,138,112.79,138.36,143.61,105.46,138.2,66.06ZM106.48,95.71a1.34,1.34,0,0,1,2.2,1.52A40.41,40.41,0,0,1,83,114.14C59.24,118.91,35.29,99.6,35.64,74.59h0c0-21.44,18.71-40,40.13-40,13-.29,30.2,6.74,26.35,19.19-1,2.61-3.32,5-7,6.68-11.46,5.32-26,3.19-37-2.08A1.34,1.34,0,0,1,59.25,56l.76.36a50.07,50.07,0,0,0,18.1,4.48c7.2.29,18.32-1.19,21.52-8,1.33-3.61-.55-6.92-3.55-9.51-4-3.44-11-6-20.23-6-20-.06-37.54,17.37-37.54,37.35h0C38.73,111.45,85.4,126,106.48,95.71Zm8.69-5.38a1.33,1.33,0,1,1,2.51.91,42.71,42.71,0,0,1-5.83,10.92C100.12,118,78.6,123.89,60.22,117.22A45.39,45.39,0,0,1,30.48,74.65h0c0-23.89,21.26-45.2,45.18-45.2h0c39.56.31,46.24,40.38,3.79,39.83a61.12,61.12,0,0,1-23.56-6c-1-.49-2.54-1-1.89-2.45.57-1,1.51-.83,2.41-.27a58.4,58.4,0,0,0,23.13,6c39,.44,31.83-34.19-3.88-34.49h0c-22.45,0-42.51,20.12-42.51,42.52h0a42.7,42.7,0,0,0,28,40.06C82.09,122.54,107.72,111.92,115.17,90.33Zm6.65-3.85a1.34,1.34,0,0,1,2.61.58,48.43,48.43,0,0,1-32.18,35.28A50.33,50.33,0,0,1,30.33,96.47C14,64.14,39.63,24.58,75.52,24.27h0c12.27,0,22.31,4,28.89,9.52,11.86,9.54,14.16,27,0,35.53-14.44,9-36.13,6.11-50.6-.85-1.06-.56-3.06-1.13-2.31-2.7s2.38-.18,3.47.28c13.68,6.59,34.37,9.43,48,1,12.57-7.62,10.1-22.78-.35-31.2C96.54,30.65,87.1,27,75.52,27h0C50.44,26.94,28.19,49.33,28,74.3a48.31,48.31,0,0,0,18.15,37.85C72.2,133.53,114.65,119.85,121.82,86.48ZM128,81.85a1.34,1.34,0,0,1,2.66.28A52.17,52.17,0,0,1,118,111.25,56.92,56.92,0,0,1,69.6,130c-27.09-2.37-49.84-27.51-49.44-55.36,0-29.56,26-55.87,55.72-55.52,19.84.55,35.49,8.9,42.31,25.18,4.18,11.08,1.12,22.56-9.12,29.42-15.27,10.21-40.52,7.9-56.23.42-1-.58-3.41-1.18-2.59-2.85.69-1.18,1.8-.61,2.76,0a68.54,68.54,0,0,0,30.11,6.66c13.78,0,29.45-4.82,33.42-18.27,2.82-10.32-2.28-20.82-10.77-27.81-33.26-25.64-82.41.75-82.93,42.82-.39,26.5,21.25,50.44,47,52.7C97.62,130.4,125.29,110.8,128,81.85Z"/></svg>